<?xml version="1.0" encoding="UTF-8"?><svg id="b" xmlns="http://www.w3.org/2000/svg" viewBox="0 0 50 33.68"><g id="c"><path id="d" d="M47.45,2.47C45.75.83,43.46.01,40.58.01h-14.14s-.03,0-.05,0c-.04,0-.07-.02-.11-.02H1.6c-.22,0-.41.06-.55.19-.14.13-.23.31-.26.53L.01,7.07c-.03.22,0,.4.12.53.11.13.28.19.51.19h7.55c.16,0,.24.1.24.29l-3.08,24.88c-.03.22,0,.4.12.53.11.13.28.19.51.19h7.36c.22,0,.41-.06.55-.19.14-.13.23-.3.26-.53l3.03-24.88c.06-.19.18-.29.34-.29h7.27l-3.12,25.15c-.03.22,0,.4.12.53.11.13.28.19.5.19h7.36c.22,0,.41-.06.55-.19.14-.13.23-.3.26-.53l1.44-11.92c.06-.19.18-.29.34-.29h1.83c.16,0,.27.08.34.24l3.61,12.16c.1.35.34.53.72.53h7.84c.22,0,.4-.06.53-.17.13-.11.19-.25.19-.41,0-.13-.02-.22-.05-.29l-4.33-12.64c-.03-.06-.03-.14,0-.22.03-.08.1-.14.19-.17,1.86-.74,3.39-1.9,4.59-3.49,1.2-1.59,1.93-3.44,2.19-5.55.06-.77.1-1.31.1-1.63,0-2.79-.85-5-2.55-6.63ZM40.12,12.9c-.72.64-1.63.96-2.72.96h-4.33c-.16,0-.24-.1-.24-.29l.67-5.53c.06-.19.18-.29.34-.29h4.33c.9,0,1.63.24,2.19.72.56.48.84,1.12.84,1.92,0,1.03-.36,1.86-1.08,2.5Z" fill="#fff"/></g></svg>