<?xml version="1.0" encoding="UTF-8"?><svg id="b" xmlns="http://www.w3.org/2000/svg" viewBox="0 0 300 90.9"><g id="c"><g id="d"><path d="M290.88,9.25c-.25-.28-.61-.42-1.1-.42h-16.01c-.49,0-.87.14-1.15.42s-.45.66-.52,1.15l-4.19,34.63c-.07.28-.17.45-.31.52-.14.07-.28-.03-.42-.31l-16.11-35.36c-.28-.7-.87-1.05-1.78-1.05h-32.61c-.84,0-1.53.31-2.09.94l-20.72,25.74c-.14.28-.3.37-.47.26-.18-.1-.23-.3-.16-.58l3.03-24.8c.07-.49-.02-.87-.26-1.15-.25-.28-.61-.42-1.1-.42h-16.01c-.49,0-.87.14-1.15.42s-.45.66-.52,1.15l-7.42,59.92-10.95-60.23c-.21-.84-.73-1.26-1.57-1.26h-21.55c-.91,0-1.53.42-1.88,1.26l-25.64,59.94-5.94-17.36c-.07-.14-.07-.3,0-.47.07-.17.21-.3.42-.37,4.04-1.6,7.38-4.13,9.99-7.59s4.2-7.48,4.76-12.08c.14-1.67.21-2.86.21-3.56,0-6.07-1.85-10.88-5.55-14.44-3.7-3.56-8.68-5.34-14.96-5.34h-30.76c-.08,0-.15.03-.22.04-.07,0-.12-.04-.19-.04H12.31c-.49,0-.89.14-1.2.42-.31.28-.51.66-.58,1.15l-1.67,13.81c-.07.49.02.87.26,1.15.24.28.61.42,1.1.42h16.43c.35,0,.52.21.52.63l-6.7,54.09c-.07.49.02.87.26,1.15.24.28.61.42,1.1.42h16.01c.49,0,.89-.14,1.2-.42.31-.28.5-.66.57-1.15l6.59-54.09c.14-.42.38-.63.73-.63h15.88l-6.78,54.72c-.07.49.02.87.26,1.15.24.28.61.42,1.1.42h16.01c.49,0,.89-.14,1.2-.42.31-.28.5-.66.58-1.15l3.14-25.95c.14-.42.38-.63.73-.63h3.98c.35,0,.59.17.73.52l7.85,26.47c.21.77.73,1.15,1.57,1.15h29.07c.98,0,1.6-.45,1.88-1.36l3.24-8.06c.21-.35.45-.52.73-.52h21.24c.35,0,.56.17.63.52l1.15,8.06c.07.91.59,1.36,1.57,1.36h33.23c.49,0,.89-.14,1.2-.42.31-.28.5-.66.58-1.15l2.2-17.79c0-.21.07-.45.21-.73l5.13-6.59c.14-.21.3-.31.47-.31s.3.1.37.31l10.67,25.63c.28.7.87,1.05,1.78,1.05h32.5c.49,0,.89-.14,1.2-.42.31-.28.5-.66.58-1.15l3.98-34.63c.07-.28.17-.45.31-.52.14-.07.28.04.42.31l16.32,35.36c.28.7.84,1.05,1.67,1.05h15.27c.49,0,.89-.14,1.2-.42.31-.28.5-.66.58-1.15l8.58-70.1c.07-.49-.02-.87-.26-1.15ZM96.16,36.87c-1.57,1.4-3.54,2.09-5.91,2.09h-9.42c-.35,0-.52-.21-.52-.63l1.47-12.03c.14-.42.38-.63.73-.63h9.42c1.95,0,3.54.52,4.76,1.57,1.22,1.05,1.83,2.44,1.83,4.18,0,2.23-.78,4.05-2.35,5.44ZM146.73,57.06h-12.45c-.35,0-.49-.24-.42-.73l9.1-23.12c.14-.28.3-.42.47-.42s.3.14.37.42l3.56,23.12c0,.49-.21.73-.63.73ZM210.83,40.85l20.9-25.51-7.16,57.81-13.85-31.46c-.21-.28-.18-.56.1-.84Z" fill="#f9773e"/><path d="M289.79,8.83c.49,0,.85.14,1.1.42.24.28.33.66.26,1.15l-8.58,70.1c-.07.49-.26.87-.58,1.15-.31.28-.72.42-1.2.42h-15.27c-.84,0-1.4-.35-1.67-1.05l-16.32-35.36c-.11-.22-.22-.33-.34-.33-.03,0-.06,0-.08.02-.14.07-.25.25-.31.52l-3.98,34.63c-.07.49-.26.87-.58,1.15-.31.28-.72.42-1.2.42h-32.5c-.91,0-1.5-.35-1.78-1.05l-10.67-25.63c-.07-.21-.19-.31-.37-.31s-.33.1-.47.31l-5.13,6.59c-.14.28-.21.52-.21.73l-2.2,17.79c-.07.49-.26.87-.58,1.15-.31.28-.72.42-1.2.42h-33.23c-.98,0-1.5-.45-1.57-1.36l-1.15-8.06c-.07-.35-.28-.52-.63-.52h-21.24c-.28,0-.52.17-.73.52l-3.24,8.06c-.28.91-.91,1.36-1.88,1.36h-29.07c-.84,0-1.36-.38-1.57-1.15l-7.85-26.47c-.14-.35-.38-.52-.73-.52h-3.98c-.35,0-.59.21-.73.63l-3.14,25.95c-.07.49-.26.87-.58,1.15-.31.28-.72.42-1.2.42h-16.01c-.49,0-.85-.14-1.1-.42-.25-.28-.33-.66-.26-1.15l6.78-54.72h-15.88c-.35,0-.59.21-.73.63l-6.59,54.09c-.07.49-.26.87-.57,1.15-.31.28-.72.42-1.2.42h-16.01c-.49,0-.85-.14-1.1-.42-.25-.28-.33-.66-.26-1.15l6.7-54.09c0-.42-.18-.63-.52-.63H10.21c-.49,0-.85-.14-1.1-.42-.25-.28-.33-.66-.26-1.15l1.67-13.81c.07-.49.26-.87.58-1.15.31-.28.71-.42,1.2-.42h53.67c.07,0,.13.03.19.04.08,0,.14-.04.22-.04h30.76c6.28,0,11.26,1.78,14.96,5.34,3.7,3.56,5.55,8.37,5.55,14.44,0,.7-.07,1.88-.21,3.56-.56,4.6-2.14,8.63-4.76,12.08-2.62,3.45-5.95,5.98-9.99,7.59-.21.07-.35.19-.42.37-.07.17-.07.33,0,.47l5.94,17.36,25.64-59.94c.35-.84.98-1.26,1.88-1.26h21.55c.84,0,1.36.42,1.57,1.26l10.95,60.23,7.42-59.92c.07-.49.24-.87.52-1.15.28-.28.66-.42,1.15-.42h16.01c.49,0,.85.14,1.1.42.24.28.33.66.26,1.15l-3.03,24.8c-.07.28-.02.47.16.58.05.03.09.04.14.04.12,0,.23-.1.33-.3l20.72-25.74c.56-.63,1.26-.94,2.09-.94h32.61c.91,0,1.5.35,1.78,1.05l16.11,35.36c.11.22.22.34.33.34.03,0,.06,0,.08-.02.14-.07.24-.24.31-.52l4.19-34.63c.07-.49.24-.87.52-1.15.28-.28.66-.42,1.15-.42h16.01M224.57,73.14l7.16-57.81-20.9,25.51c-.28.28-.31.56-.1.84l13.85,31.46M80.84,38.96h9.42c2.37,0,4.34-.7,5.91-2.09,1.57-1.39,2.35-3.21,2.35-5.44,0-1.74-.61-3.14-1.83-4.18-1.22-1.05-2.81-1.57-4.76-1.57h-9.42c-.35,0-.59.21-.73.63l-1.47,12.03c0,.42.17.63.52.63M134.28,57.06h12.45c.42,0,.63-.24.63-.73l-3.56-23.12c-.07-.28-.19-.42-.37-.42s-.33.14-.47.42l-9.1,23.12c-.07.49.07.73.42.73M289.79,0h-16.01c-2.83,0-5.46,1.07-7.4,3.01-1.64,1.64-2.68,3.77-3.02,6.16v.09s-.02.09-.02.09l-.59,4.86-3.59-7.88c-1.69-3.91-5.44-6.33-9.86-6.33h-32.61c-3.37,0-6.46,1.39-8.69,3.91l-.14.16-.13.17-2.84,3.52c-.36-1.59-1.1-3.05-2.19-4.31l-.02-.02-.02-.02c-1.94-2.2-4.68-3.41-7.72-3.41h-16.01c-2.83,0-5.46,1.07-7.39,3-1.64,1.64-2.68,3.77-3.02,6.16v.08s-.02.08-.02.08l-.31,2.54-.61-3.34-.05-.29-.07-.28c-1.19-4.75-5.26-7.94-10.14-7.94h-21.55c-4.46,0-8.29,2.54-10.01,6.64l-2.96,6.92c-1.22-2.1-2.73-4.03-4.53-5.76-5.38-5.18-12.48-7.8-21.08-7.8h-30.76c-.07,0-.14,0-.21,0-.07,0-.14,0-.21,0H12.31c-2.63,0-5.14.94-7.06,2.64-1.9,1.69-3.09,3.94-3.46,6.52v.09s-.02.09-.02.09L.1,23.08c-.4,3.03.45,5.91,2.39,8.11,1.91,2.19,4.66,3.41,7.72,3.41h7.04l-5.54,44.74c-.41,3.04.44,5.92,2.4,8.14,1.94,2.2,4.67,3.41,7.72,3.41h16.01c2.64,0,5.15-.94,7.07-2.65,1.27-1.12,2.22-2.51,2.82-4.08.42,1.21,1.07,2.34,1.95,3.33,1.94,2.2,4.67,3.41,7.72,3.41h16.01c2.64,0,5.15-.94,7.07-2.65,1.29-1.14,2.27-2.57,2.87-4.19,1.48,4.13,5.34,6.85,9.83,6.85h29.07c4.68,0,8.62-2.78,10.17-7.12l1.14-2.82h8.69l.12.81c.59,5.31,4.88,9.13,10.34,9.13h33.23c2.64,0,5.15-.94,7.07-2.65,1.87-1.65,3.07-3.9,3.44-6.48v-.09s.03-.09.03-.09l.22-1.75,1.89,4.54c1.64,4.03,5.45,6.52,9.95,6.52h32.5c2.64,0,5.15-.94,7.07-2.65,1.87-1.66,3.07-3.9,3.44-6.48l.02-.13.02-.13.55-4.78,3.63,7.86c1.69,3.9,5.39,6.31,9.75,6.31h15.27c2.65,0,5.16-.95,7.08-2.66,1.86-1.65,3.06-3.89,3.43-6.47v-.1s.03-.1.03-.1l8.57-70.05c.39-3-.44-5.86-2.36-8.06l-.02-.02-.02-.02c-1.94-2.2-4.68-3.41-7.72-3.41h0Z"/></g></g></svg>