<svg width="452" height="105" viewBox="0 0 452 105" fill="none" xmlns="http://www.w3.org/2000/svg">
<g clip-path="url(#clip0_1_61)">
<rect width="452" height="105" fill="white"/>
<path d="M424.694 2.24803C424.794 1.54864 425.044 0.999127 425.443 0.599476C425.843 0.199825 426.392 0 427.092 0H450.022C450.721 0 451.221 0.199825 451.52 0.599476C451.92 0.999127 452.07 1.54864 451.97 2.24803L439.681 102.66C439.581 103.359 439.281 103.909 438.782 104.309C438.382 104.708 437.832 104.908 437.133 104.908H415.252C414.053 104.908 413.254 104.409 412.854 103.409L389.475 52.7538C389.275 52.3541 389.075 52.2043 388.875 52.3042C388.675 52.4041 388.526 52.6539 388.426 53.0535L382.731 102.66C382.631 103.359 382.331 103.909 381.831 104.309C381.432 104.708 380.882 104.908 380.183 104.908H357.253C356.554 104.908 356.004 104.708 355.604 104.309C355.305 103.909 355.205 103.359 355.305 102.66L367.744 2.24803C367.844 1.54864 368.094 0.999127 368.493 0.599476C368.893 0.199825 369.442 0 370.142 0H392.023C393.321 0 394.171 0.499562 394.57 1.49869L417.65 52.1543C417.85 52.554 418.05 52.7038 418.25 52.6039C418.449 52.504 418.599 52.2542 418.699 51.8546L424.694 2.24803Z" fill="#079BA2"/>
<path d="M266.582 104.908C265.883 104.908 265.334 104.708 264.934 104.309C264.634 103.909 264.534 103.359 264.634 102.66L277.073 2.24803C277.173 1.54864 277.423 0.999127 277.823 0.599476C278.222 0.199825 278.772 0 279.471 0H302.401C303.1 0 303.6 0.199825 303.9 0.599476C304.299 0.999127 304.449 1.54864 304.349 2.24803L300.003 37.7669C299.903 38.1666 299.953 38.4663 300.153 38.6661C300.453 38.766 300.703 38.6162 300.902 38.2165L330.576 1.34882C331.376 0.449606 332.375 0 333.574 0H359.501C360.6 0 361.15 0.399651 361.15 1.19895C361.15 1.69851 360.95 2.19808 360.55 2.69764L325.181 45.8598C324.781 46.2595 324.732 46.6591 325.031 47.0588L349.31 102.21C349.51 102.81 349.61 103.21 349.61 103.409C349.61 104.409 348.91 104.908 347.512 104.908H321.884C320.585 104.908 319.736 104.409 319.336 103.409L304.05 66.6916C303.95 66.3918 303.75 66.242 303.45 66.242C303.25 66.242 303.051 66.3918 302.851 66.6916L295.507 76.1333C295.307 76.5329 295.207 76.8826 295.207 77.1824L292.06 102.66C291.96 103.359 291.66 103.909 291.161 104.309C290.761 104.708 290.212 104.908 289.512 104.908H266.582Z" fill="white"/>
<path d="M232.958 104.908C231.559 104.908 230.81 104.259 230.71 102.96L229.061 91.4199C228.962 90.9203 228.662 90.6706 228.162 90.6706H197.739C197.339 90.6706 196.99 90.9203 196.69 91.4199L192.044 102.96C191.644 104.259 190.745 104.908 189.346 104.908H164.618C162.919 104.908 162.37 104.059 162.969 102.36L205.982 1.79843C206.481 0.599476 207.38 0 208.679 0H239.552C240.751 0 241.501 0.599476 241.8 1.79843L260.084 102.36V102.96C260.084 104.259 259.335 104.908 257.836 104.908H232.958ZM205.982 68.0404C205.882 68.7398 206.082 69.0895 206.581 69.0895H224.415C225.015 69.0895 225.315 68.7398 225.315 68.0404L220.219 34.9194C220.119 34.5198 219.919 34.3199 219.62 34.3199C219.42 34.3199 219.22 34.5198 219.02 34.9194L205.982 68.0404Z" fill="white"/>
<path d="M131.995 104.908C130.796 104.908 130.046 104.359 129.746 103.26L118.506 65.3428C118.306 64.8432 117.957 64.5934 117.457 64.5934H111.762C111.263 64.5934 110.913 64.8931 110.713 65.4926L106.217 102.66C106.117 103.359 105.817 103.909 105.318 104.309C104.918 104.708 104.369 104.908 103.669 104.908H80.7394C80.04 104.908 79.4905 104.708 79.0909 104.309C78.7911 103.909 78.6912 103.359 78.7911 102.66L91.2302 2.24803C91.3301 1.54864 91.5799 0.999127 91.9796 0.599476C92.3792 0.199825 92.9287 0 93.6281 0H137.69C146.682 0 153.825 2.54777 159.121 7.6433C164.416 12.7388 167.064 19.6328 167.064 28.3252C167.064 29.3243 166.964 31.0228 166.764 33.4207C165.965 40.0149 163.667 45.8099 159.87 50.8055C156.173 55.7012 151.427 59.298 145.633 61.596C145.333 61.6959 145.133 61.8958 145.033 62.1955C144.933 62.3953 144.933 62.5952 145.033 62.795L158.521 102.21C158.621 102.41 158.671 102.71 158.671 103.11C158.671 103.609 158.471 104.059 158.072 104.458C157.672 104.758 157.122 104.908 156.423 104.908H131.995ZM116.708 24.1289C116.208 24.1289 115.859 24.4286 115.659 25.0281L113.561 42.263C113.561 42.8625 113.81 43.1622 114.31 43.1622H127.798C131.195 43.1622 133.993 42.1631 136.191 40.1648C138.489 38.1666 139.638 35.5688 139.638 32.3716C139.638 29.8738 138.739 27.8756 136.94 26.3769C135.242 24.8782 132.994 24.1289 130.196 24.1289H116.708Z" fill="white"/>
<path d="M81.8658 0C82.4653 0 82.9149 0.199825 83.2146 0.599476C83.6142 0.999127 83.7641 1.54864 83.6642 2.24803L81.2663 22.0307C81.1664 22.7301 80.9166 23.2796 80.517 23.6793C80.1173 24.0789 79.5678 24.2787 78.8684 24.2787H54.5897C54.0901 24.2787 53.7404 24.5785 53.5406 25.1779L44.0989 102.66C43.999 103.359 43.6992 103.909 43.1997 104.309C42.8 104.708 42.2505 104.908 41.5511 104.908H18.6212C17.9218 104.908 17.3723 104.708 16.9726 104.309C16.6729 103.909 16.573 103.359 16.6729 102.66L26.2645 25.1779C26.2645 24.5785 26.0147 24.2787 25.5151 24.2787H1.98576C1.28637 24.2787 0.736855 24.0789 0.337205 23.6793C0.0374676 23.2796 -0.0624451 22.7301 0.0374668 22.0307L2.43537 2.24803C2.53528 1.54864 2.78506 0.999127 3.18471 0.599476C3.68427 0.199825 4.28375 0 4.98313 0H81.8658Z" fill="white"/>
</g>
<defs>
<clipPath id="clip0_1_61">
<rect width="452" height="105" fill="white"/>
</clipPath>
</defs>
</svg>
