<svg width="452" height="154" viewBox="0 0 452 154" fill="none" xmlns="http://www.w3.org/2000/svg">
<g clip-path="url(#clip0_1_46)">
<rect width="452" height="154" fill="white"/>
<rect x="9" y="9" width="434" height="136" fill="white" stroke="black" stroke-width="18"/>
<path d="M395.723 33.92C395.808 33.3227 396.022 32.8533 396.363 32.512C396.704 32.1707 397.174 32 397.771 32H417.355C417.952 32 418.379 32.1707 418.635 32.512C418.976 32.8533 419.104 33.3227 419.019 33.92L408.523 119.68C408.438 120.277 408.182 120.747 407.755 121.088C407.414 121.429 406.944 121.6 406.347 121.6H387.659C386.635 121.6 385.952 121.173 385.611 120.32L365.643 77.056C365.472 76.7147 365.302 76.5867 365.131 76.672C364.96 76.7573 364.832 76.9707 364.747 77.312L359.883 119.68C359.798 120.277 359.542 120.747 359.115 121.088C358.774 121.429 358.304 121.6 357.707 121.6H338.123C337.526 121.6 337.056 121.429 336.715 121.088C336.459 120.747 336.374 120.277 336.459 119.68L347.083 33.92C347.168 33.3227 347.382 32.8533 347.723 32.512C348.064 32.1707 348.534 32 349.131 32H367.819C368.928 32 369.654 32.4267 369.995 33.28L389.707 76.544C389.878 76.8853 390.048 77.0133 390.219 76.928C390.39 76.8427 390.518 76.6293 390.603 76.288L395.723 33.92Z" fill="#079BA2"/>
<path d="M260.683 121.6C260.086 121.6 259.616 121.429 259.275 121.088C259.019 120.747 258.934 120.277 259.019 119.68L269.643 33.92C269.728 33.3227 269.942 32.8533 270.283 32.512C270.624 32.1707 271.094 32 271.691 32H291.275C291.872 32 292.299 32.1707 292.555 32.512C292.896 32.8533 293.024 33.3227 292.939 33.92L289.227 64.256C289.142 64.5973 289.184 64.8533 289.355 65.024C289.611 65.1093 289.824 64.9813 289.995 64.64L315.339 33.152C316.022 32.384 316.875 32 317.899 32H340.043C340.982 32 341.451 32.3413 341.451 33.024C341.451 33.4507 341.28 33.8773 340.939 34.304L310.731 71.168C310.39 71.5093 310.347 71.8507 310.603 72.192L331.339 119.296C331.51 119.808 331.595 120.149 331.595 120.32C331.595 121.173 330.998 121.6 329.803 121.6H307.915C306.806 121.6 306.08 121.173 305.739 120.32L292.683 88.96C292.598 88.704 292.427 88.576 292.171 88.576C292 88.576 291.83 88.704 291.659 88.96L285.387 97.024C285.216 97.3653 285.131 97.664 285.131 97.92L282.443 119.68C282.358 120.277 282.102 120.747 281.675 121.088C281.334 121.429 280.864 121.6 280.267 121.6H260.683Z" fill="black"/>
<path d="M231.965 121.6C230.77 121.6 230.13 121.045 230.045 119.936L228.637 110.08C228.552 109.653 228.296 109.44 227.869 109.44H201.885C201.544 109.44 201.245 109.653 200.989 110.08L197.021 119.936C196.68 121.045 195.912 121.6 194.717 121.6H173.597C172.146 121.6 171.677 120.875 172.189 119.424L208.925 33.536C209.352 32.512 210.12 32 211.229 32H237.597C238.621 32 239.261 32.512 239.517 33.536L255.133 119.424V119.936C255.133 121.045 254.493 121.6 253.213 121.6H231.965ZM208.925 90.112C208.84 90.7093 209.01 91.008 209.437 91.008H224.669C225.181 91.008 225.437 90.7093 225.437 90.112L221.085 61.824C221 61.4827 220.829 61.312 220.573 61.312C220.402 61.312 220.232 61.4827 220.061 61.824L208.925 90.112Z" fill="black"/>
<path d="M145.734 121.6C144.71 121.6 144.07 121.131 143.814 120.192L134.214 87.808C134.043 87.3813 133.745 87.168 133.318 87.168H128.454C128.027 87.168 127.729 87.424 127.558 87.936L123.718 119.68C123.633 120.277 123.377 120.747 122.95 121.088C122.609 121.429 122.139 121.6 121.542 121.6H101.958C101.361 121.6 100.891 121.429 100.55 121.088C100.294 120.747 100.209 120.277 100.294 119.68L110.918 33.92C111.003 33.3227 111.217 32.8533 111.558 32.512C111.899 32.1707 112.369 32 112.966 32H150.598C158.278 32 164.379 34.176 168.902 38.528C173.425 42.88 175.686 48.768 175.686 56.192C175.686 57.0453 175.601 58.496 175.43 60.544C174.747 66.176 172.785 71.1253 169.542 75.392C166.385 79.5733 162.331 82.6453 157.382 84.608C157.126 84.6933 156.955 84.864 156.87 85.12C156.785 85.2907 156.785 85.4613 156.87 85.632L168.39 119.296C168.475 119.467 168.518 119.723 168.518 120.064C168.518 120.491 168.347 120.875 168.006 121.216C167.665 121.472 167.195 121.6 166.598 121.6H145.734ZM132.678 52.608C132.251 52.608 131.953 52.864 131.782 53.376L129.99 68.096C129.99 68.608 130.203 68.864 130.63 68.864H142.15C145.051 68.864 147.441 68.0107 149.318 66.304C151.281 64.5973 152.262 62.3787 152.262 59.648C152.262 57.5147 151.494 55.808 149.958 54.528C148.507 53.248 146.587 52.608 144.198 52.608H132.678Z" fill="black"/>
<path d="M102.92 32C103.432 32 103.816 32.1707 104.072 32.512C104.413 32.8533 104.541 33.3227 104.456 33.92L102.408 50.816C102.323 51.4133 102.109 51.8827 101.768 52.224C101.427 52.5653 100.957 52.736 100.36 52.736H79.624C79.1973 52.736 78.8987 52.992 78.728 53.504L70.664 119.68C70.5787 120.277 70.3227 120.747 69.896 121.088C69.5547 121.429 69.0853 121.6 68.488 121.6H48.904C48.3067 121.6 47.8373 121.429 47.496 121.088C47.24 120.747 47.1547 120.277 47.24 119.68L55.432 53.504C55.432 52.992 55.2187 52.736 54.792 52.736H34.696C34.0987 52.736 33.6293 52.5653 33.288 52.224C33.032 51.8827 32.9467 51.4133 33.032 50.816L35.08 33.92C35.1653 33.3227 35.3787 32.8533 35.72 32.512C36.1467 32.1707 36.6587 32 37.256 32H102.92Z" fill="black"/>
</g>
<defs>
<clipPath id="clip0_1_46">
<rect width="452" height="154" fill="white"/>
</clipPath>
</defs>
</svg>
